<svg id="Layer_1" data-name="Layer 1" xmlns="http://www.w3.org/2000/svg" xmlns:xlink="http://www.w3.org/1999/xlink"
  viewBox="0 0 130 130">
  <defs>
    <style>
      .cls-1 {
        fill: none;
      }

      .cls-2 {
        clip-path: url(#clip-path);
      }
    </style>
    <clipPath id="clip-path">
      <rect class="cls-1" width="130" height="130" />
    </clipPath>
  </defs>
  <title>fii_2</title>
  <g class="cls-2">
    <g class="cls-2">
      <!-- Tää style värin ylikoodaus ei sit todellakaan oo pohjas mukana :D -->
        <!-- style="fill: #ccc;" -->
      <path
        d="M67.064,2.0336a63.00032,63.00032,0,1,0,60.903,60.902A63.00572,63.00572,0,0,0,67.064,2.0336m17.926,27.696c.9-2.01,2.21-4.56,4.24-5.2,3.95-1.25,10.93,4.64,15.43,10.53a50.4353,50.4353,0,0,1,9.85,24.22c-3.49-10.06-16.06-18.24-32.6-21.61,1.46-3.929,2.59-6.87,3.08-7.94m1.277,43.611a22.04544,22.04544,0,0,1-20.412,14.4c-.729.014-1.475.018-2.195-.031,2.41-6.679,5.2-14.32,7.45-20.49,2.23-6.12,4.98-13.71,7.46-20.479a22.94957,22.94957,0,0,1,7.697,26.6M18.02,47.8996a49.74161,49.74161,0,0,1,3.08-6.82c.5-.919,1.03-1.83,1.58-2.709a50.15618,50.15618,0,0,1,11.12-12.44c7.84-6.25,18.15-10.381,27.99-10.381,3.88,0,9.3.651,10.44,4.5.61,2.03.01,4.78-.66,7.17-.4,1.41-1.52,4.66-3,8.85-1.18-.05-2.37-.07-3.57-.07-24.77,0-45.37,10.241-49.67,23.75a48.60663,48.60663,0,0,1,2.69-11.85m26.99,52.37c-.9,2.011-2.21,4.56-4.24,5.2-3.95,1.24-10.93-4.64-15.43-10.529a50.43463,50.43463,0,0,1-9.85-24.221c3.49,10.061,16.06,18.24,32.6,21.61-1.46,3.93-2.59,6.871-3.08,7.94m-1.251-43.682a22.03209,22.03209,0,0,1,20.377-14.328c.732-.014,1.481-.019,2.204.03-2.41,6.67-5.2,14.32-7.45,20.49-2.23,6.121-4.98,13.711-7.46,20.48a22.95407,22.95407,0,0,1-7.671-26.672m68.221,25.512a49.63354,49.63354,0,0,1-3.08,6.82c-.5.92-1.03,1.83-1.58,2.71a49.99859,49.99859,0,0,1-11.12,12.441c-7.83,6.25-18.15,10.38-27.99,10.38-3.88,0-9.3-.661-10.44-4.5-.61-2.031-.01-4.781.66-7.17.4-1.41,1.52-4.67,3.01-8.851,1.17.051,2.36.07,3.56.07,24.77,0,45.37-10.24,49.67-23.75a48.5959,48.5959,0,0,1-2.69,11.85" />
    </g>
  </g>
</svg>